<?xml version="1.0" encoding="utf-8"?>
<!-- Uploaded to: SVG Repo, www.svgrepo.com, Generator: SVG Repo Mixer Tools -->
<svg width="800px" height="800px" viewBox="0 -19.19 349.005 349.005" xmlns="http://www.w3.org/2000/svg"><defs><style>.a{fill:#ffffff;}.b{fill:#211715;}.c{fill:#b3b3b3;}.d{fill:#957f6e;}.e{fill:#ffda71;}</style></defs><path class="a" d="M235.188,270.989l-47.477-2.158c3.867,12.319,7.529,24,10.055,32.079a5.634,5.634,0,0,1-2.787,6.691l-.565.293.808-.337c12.083-5.041,51.207-22.425,58.625-25.833l-4.567-13.209A32.4,32.4,0,0,1,235.188,270.989Z"/><path class="a" d="M226.17,278c-4.153,3.339-7.29,7.869-11.591,12.351-.618.644-3.15,2.332-5.1.827-1.283-.99-1.469-3.477-1-4.492,2.528-5.525,3.564-7.2,5.443-11.069-2.29,2.413-4.076,4.434-6.787,7.175l-2.763,2.793-3.471,3.509s-2.454,2.619-5.115,5.463c-2.829-9.035-6.463-20.621-10.132-32.305,3.319-4.162,6.242-8.857,10.3-12.418a18.316,18.316,0,0,1,10.234-4.813,25.069,25.069,0,0,1,4.749.161q4.506.461,8.981,1.174c5.423.864,11.5,1.878,15.837-1.792,5.62,4.974,10.721,14.79,13.538,23.951a22.37,22.37,0,0,0-2.914,1.7c-.627.429-2.644,2.216-3.311,2.579a46.022,46.022,0,0,1-16.55,5.114"/><path class="a" d="M122.79,138.923a30.458,30.458,0,0,1-4.1,19.174,94.187,94.187,0,0,1,3.541,12.151l.071.359c-6.5,2.322-17.012,5.365-24.447,7.567l-.426-2c-.355-1.665-2.559-10.043-3.839-12.116a24.814,24.814,0,0,0-4.209-4.625,95.384,95.384,0,0,1-7.444-8.375c-1.3-1.52-2.667-5.195-2.195-7.334a13.181,13.181,0,0,1,3.389-6.833,4.462,4.462,0,0,1,3.53-1.038l-.183-.365a5.632,5.632,0,0,1-.833-4.653c.655-2.115,1.661-2.515,3.458-2.875a4.065,4.065,0,0,1,1.015-.043c-1.452-1.9-.612-3.948.75-5.269a6.172,6.172,0,0,1,4.055-1.819,16.5,16.5,0,0,1,2.613.029l-.867-2.267q-2.437-6.667-4.866-13.338a18.044,18.044,0,0,1-.981-3.352,6.788,6.788,0,0,1,1.258-5.38c1.144-1.332,3.34-1.358,5.01-.63,1.832.8,2.791,2.334,3.86,4.265,3.471,6.269,7.83,18.651,9.623,25.622l.456,1.774c2.4-.73,4.947-1.043,7.014.241,1.734,1.077,2.689,3.048,3.353,4.979A29.337,29.337,0,0,1,122.79,138.923Z"/><path class="a" d="M194.91,117.108c1.387-.583,2.709-1.186,3.874-1.764l8.673-4.952a54.172,54.172,0,0,0,8.456-9.525c.453,2.288.829,4.18.829,4.18,1.128,4.674,1.893,6.672,3.06,8.168a18.083,18.083,0,0,1-2.056,6.349q-.245.482-.485.952A62.938,62.938,0,0,1,210,132.21a36.468,36.468,0,0,1-6.87,6.4,41.5,41.5,0,0,1-5.506-2.858c-5.755,2.958-13.71,2.652-19.315.568a11.477,11.477,0,0,1-1.648-.751c-.416.37-.823.736-1.228,1.1-1.8,1.324-3,2.233-5.187,3.721-.928-2.225-1.693-4.58-2.738-7.125-1.443-5.261-2.429-7.892-3.227-11.147,2.042-.73,3.842-1.332,5.252-1.751a36.4,36.4,0,0,0,11.905.462,46.791,46.791,0,0,0,4.651-.771A54.675,54.675,0,0,0,194.91,117.108Z"/><path class="b" d="M214.428,105.685c.791,3.264,1.59,6.919,3.9,9.5a15.114,15.114,0,0,0,4.272,2.978,23.789,23.789,0,0,0,5.589,2.2,2.4,2.4,0,0,0,1.276-4.629,16.936,16.936,0,0,1-2.435-.776c-.121-.048-.648-.275-.119-.044-.232-.1-.464-.2-.694-.31-.4-.187-.8-.383-1.194-.589a23.027,23.027,0,0,1-2.149-1.264c-.174-.118-.343-.241-.515-.362-.434-.3.408.35.029.022-.232-.2-.455-.4-.666-.623-.163-.171-.28-.5.086.13-.068-.116-.164-.223-.241-.334-.142-.207-.274-.42-.4-.638-.135-.237-.259-.481-.375-.728-.032-.068-.169-.266-.157-.346q.232.557.087.2c-.034-.086-.069-.173-.1-.26a43.476,43.476,0,0,1-1.564-5.4,2.424,2.424,0,0,0-2.953-1.676,2.451,2.451,0,0,0-1.676,2.952Z"/><path class="a" d="M224.235,68.3a6.772,6.772,0,0,1,4.858-1.207,6.113,6.113,0,0,1,5.168,3.363c1.564,3.216.976,8.818-.582,12.181a17.715,17.715,0,0,1-6.484,8.061,13.02,13.02,0,0,1-6.374,1.65c-.233.55-.392.931-.392.931-.768,1.72-2.614,4.743-2.614,4.743a56.405,56.405,0,0,1-10.358,12.374l-8.673,4.952a62.472,62.472,0,0,1-12.7,4.715,46.791,46.791,0,0,1-4.651.771c-10,1.155-18.375-1.252-26.378-7.45-7.634-5.912-11.144-15.464-12.6-26.091-.825-6.015-1.578-12.547-2.608-19.077,0,0-8.686-35.765,34.654-36.436C228.336,30.943,224.235,68.3,224.235,68.3Z"/><path class="c" d="M203.3,48.576c-2.385-4.864-6.978-10.123-12.186-11.546a66.454,66.454,0,0,0-13.946-.587c-8.222.444-22.873,3.887-22.873,3.887-9.824,4.62-14.888,13.549-13.243,27.882h-1.161a78.19,78.19,0,0,1-1.172-24.908c1.245-8.885,3.927-16.858,10.511-23.532C158.247,8.017,169.048,3.886,184.4,2.519c10.019-.892,25.04.845,39.34,14.812,6.575,6.741,9.389,11.4,11.792,19.678A63.792,63.792,0,0,1,237.9,52.756c-.124,4.481-.55,13.708-2.946,19.111l-.689-1.415a6.113,6.113,0,0,0-5.168-3.363,6.772,6.772,0,0,0-4.858,1.207L215.1,66.715a76.963,76.963,0,0,0-2.439-10.747,13.412,13.412,0,0,0-3.234-4.749,11.249,11.249,0,0,0-5.72-2.608"/><path class="d" d="M294.381,208.638c-2.222-12.25-4.028-20.472-10.8-44.139-3.417-11.929-8.889-22.986-14.017-28.362-5.706-5.982-12.237-9.48-20.011-12.29-6.649-2.4-15.125-5.47-21.75-7.681-1.982-.662-7.875-2.8-7.875-2.8l-.135-.048a18.093,18.093,0,0,1-2.042,6.245A66.49,66.49,0,0,1,210,132.21q-.7.844-1.451,1.651a37.017,37.017,0,0,1-5.419,4.749,41.9,41.9,0,0,1-5.448-2.825l-.494.189c-5.718,2.719-13.415,2.378-18.879.346a11.422,11.422,0,0,1-1.647-.752q-.623.555-1.229,1.1c-1.8,1.324-3,2.233-5.187,3.721-.928-2.225-1.693-4.58-2.738-7.125-1.392-5.074-2.359-7.7-3.14-10.8l-.087-.347c-8.526,3.051-21.238,8.317-27.2,12.1a23.859,23.859,0,0,0-7.22,6.94,48.735,48.735,0,0,0-4.17,11.17h-4.318a28.921,28.921,0,0,1-2.677,5.769,94.141,94.141,0,0,1,3.541,12.151l.071.357c-8.517,3.043-23.907,7.321-30.27,9.328,3.031,10.638,6.519,22.32,10.563,32.691,24.618.124,48.546.206,61.124.291a8.786,8.786,0,0,1,8.328,6.14c3.163,10,8.417,26.7,13.6,43.2,3.319-4.163,6.241-8.858,10.3-12.419a18.316,18.316,0,0,1,10.234-4.813,25.069,25.069,0,0,1,4.749.161q4.506.461,8.981,1.174c5.423.864,11.5,1.878,15.836-1.792,6.548,5.794,12.391,18.16,14.739,28.407,8.122-2.623,24.365-8.807,34.318-16.25,6.766-5.059,8.583-10.25,10.25-15.166.966-2.852,1.737-9.915,1.847-12.878C297.038,224.844,295.381,213.86,294.381,208.638Z"/><path class="b" d="M209.154,112.089a58.739,58.739,0,0,0,8.86-10.052,47.8,47.8,0,0,0,4.487-7.551,2.47,2.47,0,0,0-.861-3.283,2.418,2.418,0,0,0-3.283.861,47.523,47.523,0,0,1-4.327,7.32,53.569,53.569,0,0,1-8.27,9.311,2.4,2.4,0,0,0,3.394,3.394Z"/><path class="b" d="M144.938,21.021c-5.38,6.954-7.931,15.3-8.822,23.969A76.9,76.9,0,0,0,138,70.671c.728,3,5.358,1.73,4.628-1.276a73.585,73.585,0,0,1-1.776-23.7c.667-7.489,2.825-15.26,7.484-21.281a2.481,2.481,0,0,0,0-3.394,2.417,2.417,0,0,0-3.4,0Z"/><path class="b" d="M236.909,73.33c1.973-4.356,2.616-9.181,3.025-13.906a58.612,58.612,0,0,0-.023-12.5c-1.187-9.362-3.842-18.463-9.744-25.97A56.019,56.019,0,0,0,204.59,2.519C196.709-.171,188.511-.5,180.314.565a59.36,59.36,0,0,0-15.862,4.068,41.339,41.339,0,0,0-12.926,8.847c-2.187,2.187,1.206,5.582,3.394,3.394,6.2-6.2,13.988-9.532,22.537-11.057,7.539-1.344,15.189-1.586,22.574.343A50.089,50.089,0,0,1,224.2,21.321a38.781,38.781,0,0,1,6.919,10.335,53.763,53.763,0,0,1,3.515,12.276,54.765,54.765,0,0,1,.662,13.262c-.285,4.523-.644,9.537-2.536,13.713a2.472,2.472,0,0,0,.861,3.284,2.42,2.42,0,0,0,3.284-.861Z"/><path class="b" d="M197.572,113.272c-10.385,5.107-22.775,7.781-33.719,2.712a30.312,30.312,0,0,1-12.7-10.29,41.459,41.459,0,0,1-5.8-15.457c-1.436-7.609-2.036-15.381-3.247-23.03a2.417,2.417,0,0,0-2.952-1.677,2.46,2.46,0,0,0-1.677,2.953c1.16,7.325,1.8,14.738,3.069,22.044a46.32,46.32,0,0,0,6.169,17.136c6.731,10.5,19.506,16.376,31.811,15.805,7.581-.352,14.7-2.724,21.47-6.052a2.423,2.423,0,0,0,.861-3.283,2.45,2.45,0,0,0-3.284-.861Z"/><path class="b" d="M225.446,70.369a4.893,4.893,0,0,1,4.524-.646,3.194,3.194,0,0,1,2.071,1.657c1.363,2.523.8,6.283-.035,8.933a16.341,16.341,0,0,1-4.867,7.468c-1.918,1.609-5.446,2.977-8.022,1.878a2.481,2.481,0,0,0-3.284.861,2.416,2.416,0,0,0,.861,3.283,13.289,13.289,0,0,0,10.838-.573c3.121-1.45,5.6-4.428,7.228-7.391a22.121,22.121,0,0,0,2.8-9.722c.143-3.1-.4-6.573-2.664-8.872a9.616,9.616,0,0,0-11.874-1.021,2.467,2.467,0,0,0-.861,3.284,2.422,2.422,0,0,0,3.284.861Z"/><path class="b" d="M193.441,72.727c.712,2.139.393,7.1-3.679,7.619-5.4.089-5.818-5.9-4.066-8.754C187.13,69.252,191.48,68.194,193.441,72.727Z"/><path class="b" d="M160.966,72.528c.659,2.077.379,6.894-3.355,7.382-4.949.072-5.354-5.735-3.754-8.5C155.167,69.14,159.154,68.125,160.966,72.528Z"/><path class="b" d="M169.066,82.307c-.674,1.206-1.31,2.434-1.882,3.691a5.267,5.267,0,0,0-.6,2.136,3.132,3.132,0,0,0,1.151,2.47,4.42,4.42,0,0,0,1.931,1.026c.47.092.934.1,1.4.16a2.388,2.388,0,0,0,1.7-.7,2.4,2.4,0,0,0,0-3.394l-.485-.375a2.4,2.4,0,0,0-1.212-.328c-.211-.025-.424-.027-.635-.053l.638.086a2.239,2.239,0,0,1-.545-.151l.574.242a2.583,2.583,0,0,1-.458-.279l.486.375a2.758,2.758,0,0,1-.3-.273l.376.485a.63.63,0,0,1-.081-.128l.242.573a1.057,1.057,0,0,1-.061-.215l.085.638a1.528,1.528,0,0,1,.008-.317l-.085.638a2.8,2.8,0,0,1,.175-.572l-.242.573c.578-1.329,1.261-2.617,1.968-3.882a2.5,2.5,0,0,0,.242-1.849,2.4,2.4,0,0,0-4.387-.574Z"/><path class="b" d="M153.085,38.257A24.945,24.945,0,0,0,141.3,49.418c-2.892,5.812-3.354,12.425-2.649,18.794a2.471,2.471,0,0,0,2.4,2.4,2.416,2.416,0,0,0,2.4-2.4c-.606-5.473-.473-11.414,1.993-16.372A20.621,20.621,0,0,1,155.508,42.4a2.423,2.423,0,0,0,.861-3.284,2.452,2.452,0,0,0-3.284-.861Z"/><path class="b" d="M184.829,33.629a19.218,19.218,0,0,0-3.464-4.456,19.572,19.572,0,0,0-5.034-3.353,2.583,2.583,0,0,0-1.85-.242,2.4,2.4,0,0,0-.573,4.386,19.07,19.07,0,0,1,3.529,2.112l-.486-.375a15.356,15.356,0,0,1,2.677,2.685l-.375-.486a19.841,19.841,0,0,1,1.431,2.152,2.4,2.4,0,0,0,4.145-2.423Z"/><path class="b" d="M173.642,34.536c-4.88-3.467-11.094-4.274-16.938-4.128a2.4,2.4,0,0,0,0,4.8c5.271-.132,10.224.424,14.516,3.472a2.419,2.419,0,0,0,3.283-.861,2.45,2.45,0,0,0-.861-3.283Z"/><path class="b" d="M217.414,66.077c-.379-2.387-.845-4.761-1.425-7.108a22.206,22.206,0,0,0-1.973-5.719,13.63,13.63,0,0,0-9.672-6.954,2.476,2.476,0,0,0-2.953,1.677,2.418,2.418,0,0,0,1.677,2.952,9.5,9.5,0,0,1,4.553,1.916l.2.147c-.116-.093-.12-.1-.012-.007.137.116.269.235.4.362s.27.285.4.434c.033.038.346.43.172.2a14.858,14.858,0,0,1,1.314,2.091c.065.122.121.249.188.37.286.511-.1-.411.027.044.117.432.27.858.4,1.289.283.977.54,1.962.778,2.951.526,2.191.955,4.4,1.308,6.629a2.417,2.417,0,0,0,2.952,1.677,2.46,2.46,0,0,0,1.677-2.953Z"/><path class="b" d="M205.373,47.364c-2.727-5.51-7.526-10.932-13.62-12.648a2.4,2.4,0,0,0-1.276,4.628c.341.1.679.2,1.011.326.068.026.545.215.212.078s.141.067.207.1a15.221,15.221,0,0,1,1.763.977c.315.2.623.415.926.636.053.039.469.367.209.156s.152.127.2.169c.569.47,1.112.971,1.631,1.5q.751.757,1.435,1.579c.1.124.207.248.308.374.047.059.438.58.1.124.21.283.421.565.624.854a27.4,27.4,0,0,1,2.123,3.577,2.413,2.413,0,0,0,3.283.861,2.46,2.46,0,0,0,.861-3.284Z"/><path class="b" d="M187.7,97.553a2.679,2.679,0,0,1,.331.359l-.375-.485a6.3,6.3,0,0,1,.792,1.4l-.241-.574a5.214,5.214,0,0,1,.36,1.234,2.477,2.477,0,0,0,2.952,1.677,2.431,2.431,0,0,0,1.435-1.1l.242-.574a2.423,2.423,0,0,0,0-1.276,4.676,4.676,0,0,0-.227-.887,11.731,11.731,0,0,0-.6-1.4,6.264,6.264,0,0,0-.454-.759,5.613,5.613,0,0,0-.821-1,2.47,2.47,0,0,0-3.394,0,2.417,2.417,0,0,0-.7,1.7,2.391,2.391,0,0,0,.7,1.7Z"/><path class="b" d="M168.431,103a15.333,15.333,0,0,0,7.423,1.307,17.617,17.617,0,0,0,3.66-.552,10.986,10.986,0,0,0,3.695-1.492,2.46,2.46,0,0,0,.861-3.283,2.426,2.426,0,0,0-3.284-.861,6.114,6.114,0,0,1-.639.4c-.222.126-.153.073.04,0-.122.047-.245.094-.369.137-.493.171-1,.309-1.5.449a12.715,12.715,0,0,1-1.348.3c-.064.011-.47.073-.131.024s-.075.007-.139.013q-.422.045-.845.068-.765.042-1.531.017-.382-.014-.763-.043c-.126-.01-.252-.024-.378-.035-.355-.031-.021.061.079.017-.141.061-.571-.093-.725-.123-.262-.052-.523-.113-.78-.183-.22-.06-.438-.127-.654-.2-.1-.036-.205-.081-.31-.115-.3-.1.539.243.062.016A2.4,2.4,0,1,0,168.431,103Z"/><path class="b" d="M291.631,252.85q9.258,0,18.515-.024l29.281-.039q3.63,0,7.26-.008c3.088,0,3.094-4.8,0-4.8q-9.512,0-19.023.024l-29.139.039q-3.447,0-6.894.008c-3.088,0-3.093,4.8,0,4.8Z"/><path class="b" d="M2.318,252.858c11.016,0,22.031-.047,33.046-.069q2.661-.006,5.323-.01c3.088,0,3.094-4.8,0-4.8-11.151,0-22.3.046-33.453.069q-2.459.006-4.916.01c-3.088,0-3.093,4.8,0,4.8Z"/><path class="b" d="M252.047,274.98a169,169,0,0,0,20.911-8.485c7.454-3.643,15.458-7.984,20.206-15.024,3.942-5.845,5.261-12.81,5.91-19.695.609-6.474-.571-13.007-1.609-19.386a336.907,336.907,0,0,0-7.434-33.72c-2.47-9.138-4.808-18.383-8.511-27.116-3.169-7.476-7.152-14.733-13.391-20.081-6.767-5.8-14.844-8.83-23.115-11.808-7.331-2.639-14.72-5.11-22.051-7.745q-1.2-.432-2.4-.867a2.422,2.422,0,0,0-2.952,1.676,2.449,2.449,0,0,0,1.676,2.952c5.745,2.083,11.539,4.018,17.3,6.056,7.89,2.793,16.222,5.188,23.371,9.648a38.1,38.1,0,0,1,8.883,7.537,47.051,47.051,0,0,1,5.739,9.042c4.266,8.3,6.736,17.223,9.228,26.17,3.144,11.291,5.972,22.625,8.082,34.157a140.878,140.878,0,0,1,2.585,18.729,45.743,45.743,0,0,1-.613,8.367,38.337,38.337,0,0,1-2.363,8.972c-2.887,7.27-9.132,11.6-15.736,15.273a142.715,142.715,0,0,1-20.769,9.253q-2.1.762-4.221,1.467c-2.917.969-1.667,5.606,1.276,4.628Z"/><path class="b" d="M237.969,237.245c4.926-2.089,9.661-4.524,14.473-6.855a2.413,2.413,0,0,0,.861-3.284,2.463,2.463,0,0,0-3.284-.861c-4.812,2.331-9.546,4.766-14.473,6.855a2.4,2.4,0,0,0-.861,3.284,2.478,2.478,0,0,0,3.284.861Z"/><path class="b" d="M128,152.966a40.962,40.962,0,0,1,3.135-9.106,19.109,19.109,0,0,1,7.355-7.7c5.953-3.715,12.642-6.4,19.144-8.974,3.529-1.4,7.087-2.738,10.692-3.93,2.919-.965,1.669-5.6-1.276-4.629a214.772,214.772,0,0,0-21.371,8.449c-6.742,3.065-14.5,6.625-18.222,13.432a41.737,41.737,0,0,0-4.086,11.18c-.627,3.014,4,4.3,4.629,1.276Z"/><path class="b" d="M241.152,192.026l7.317,26.786c.813,2.976,5.445,1.713,4.629-1.276L245.78,190.75c-.813-2.976-5.445-1.713-4.628,1.276Z"/><path class="b" d="M233.607,243.186c-3.409,2.177-7.641,1.691-11.453,1.109-4.715-.72-9.536-1.661-14.317-1.727-9.748-.136-16.147,7.637-21.445,14.767a2.416,2.416,0,0,0,.861,3.283,2.457,2.457,0,0,0,3.284-.861c2.5-3.367,5.095-6.93,8.553-9.387a16.561,16.561,0,0,1,5.311-2.607,17.514,17.514,0,0,1,6.286-.205c4.453.442,8.844,1.278,13.286,1.789,4.128.475,8.457.282,12.057-2.016,2.6-1.657.191-5.814-2.423-4.145Z"/><path class="b" d="M196.549,260.661l-7.34,7.277a2.4,2.4,0,0,0,3.394,3.394l7.34-7.277a2.4,2.4,0,0,0-3.394-3.394Z"/><path class="b" d="M197.228,281.544c3.7-4.326,7.756-8.348,11.8-12.348a2.4,2.4,0,0,0-3.394-3.394c-4.048,4-8.1,8.022-11.8,12.347a2.4,2.4,0,0,0,3.394,3.395Z"/><path class="b" d="M202.59,290.791c2.726-2.756,5.486-5.482,8.161-8.287,2.363-2.479,4.654-5.024,7.06-7.462a2.4,2.4,0,0,0-3.394-3.394c-2.407,2.438-4.7,4.983-7.06,7.462-2.675,2.805-5.435,5.531-8.161,8.287a2.4,2.4,0,0,0,3.394,3.394Z"/><path class="b" d="M226.505,280.309a52.413,52.413,0,0,0,14.246-3.739,22.1,22.1,0,0,0,5.34-3.072c.33-.267.656-.538.983-.806q.242-.2.484-.393c.309-.246-.269.19-.039.031a25.764,25.764,0,0,1,2.99-1.752,2.4,2.4,0,0,0-2.422-4.144,24.915,24.915,0,0,0-4.619,3.038,16.934,16.934,0,0,1-1.429,1.129,22.087,22.087,0,0,1-2.929,1.481,44.384,44.384,0,0,1-12.605,3.427,2.478,2.478,0,0,0-2.4,2.4,2.415,2.415,0,0,0,2.4,2.4Z"/><path class="b" d="M233.17,245.533c3.867,2.885,6.682,7.51,8.922,11.766a68.468,68.468,0,0,1,6,16c.716,3,5.345,1.732,4.628-1.276a73.491,73.491,0,0,0-6.673-17.505c-2.641-4.942-5.923-9.752-10.457-13.134a2.415,2.415,0,0,0-3.284.861,2.457,2.457,0,0,0,.861,3.283Z"/><path class="b" d="M211.122,275.866c-.981,1.958-2,3.9-2.96,5.866a40.545,40.545,0,0,0-2.032,4.384,6.955,6.955,0,0,0-.033,3.9,5.48,5.48,0,0,0,7.5,3.708c2.884-1.146,4.785-3.929,6.747-6.209a61.246,61.246,0,0,1,7.526-7.816,2.416,2.416,0,0,0,0-3.394,2.456,2.456,0,0,0-3.394,0c-4.423,3.6-7.649,8.356-11.631,12.39-.062.063-.4.326-.136.131.288-.209-.312.184-.379.222-.113.064-.571.27-.219.133-.141.055-.713.219-.584.2a.585.585,0,0,1-.609-.11c.233.137-.134-.228.081.1a3.576,3.576,0,0,1-.211-.371c.112.221.045.153,0-.038-.05-.217-.116-.428-.153-.648.078.455.016-.172.008-.325,0-.1.02-.2.011-.3.005.053-.119.4-.026.178.032-.074.031-.171.057-.248.12-.352-.109.215.075-.177.532-1.13,1.055-2.264,1.6-3.386.942-1.932,1.943-3.834,2.906-5.756a2.459,2.459,0,0,0-.861-3.283,2.423,2.423,0,0,0-3.284.861Z"/><path class="b" d="M195.86,309.872c7.83-3.27,15.592-6.7,23.358-10.121q13.451-5.918,26.866-11.912c3-1.339,5.993-2.674,8.974-4.043a2.418,2.418,0,0,0,.861-3.283,2.455,2.455,0,0,0-3.283-.861c-15.65,7.186-31.447,14.072-47.236,20.944q-3.173,1.381-6.351,2.749-1.328.57-2.658,1.136c-.2.084-1.359.575-.761.323l-1.046.439a2.48,2.48,0,0,0-1.676,2.952,2.415,2.415,0,0,0,2.952,1.677Z"/><path class="a" d="M37.551,212.075c30.788.512,101.072.672,126.168.84a8.787,8.787,0,0,1,8.328,6.14c5.972,18.886,19.4,61.641,25.719,81.855a5.633,5.633,0,0,1-5.4,7.317c-27.195-.1-100.463-.36-128.632-.93a5.621,5.621,0,0,1-5.264-3.963C52.916,285.37,38.652,240.1,32.08,219.423A5.639,5.639,0,0,1,37.551,212.075Z"/><path class="b" d="M37.551,214.475c14.38.238,28.762.331,43.143.423q25.2.164,50.4.257,10.6.047,21.2.1,4.14.02,8.28.044c3.068.018,6.221-.167,8.25,2.621a14.961,14.961,0,0,1,1.752,4.443q.708,2.239,1.414,4.479,1.686,5.345,3.369,10.692,3.911,12.424,7.813,24.851,3.846,12.245,7.685,24.491,1.62,5.164,3.236,10.329c.776,2.481,3.053,6.784-.324,8.328-1.138.52-2.6.294-3.829.289l-3.975-.014-9.171-.034q-10.962-.042-21.926-.092-24.94-.115-49.881-.3c-13.491-.1-26.983-.206-40.472-.469-1.5-.029-2.927-.386-3.616-1.89a31.941,31.941,0,0,1-1.2-3.821q-1.446-4.653-2.9-9.3-3.63-11.616-7.285-23.226-7.175-22.82-14.4-45.621c-.421-1.327-1.2-2.86-.773-4.241a3.289,3.289,0,0,1,3.211-2.334c3.086-.04,3.095-4.84,0-4.8a8.135,8.135,0,0,0-7.955,9.717,46.917,46.917,0,0,0,1.424,4.621q.786,2.478,1.571,4.956,3.755,11.855,7.491,23.714,7.405,23.495,14.747,47.008c1.1,3.547,1.849,7.463,5.562,9.211,2.807,1.321,6.541.858,9.591.905q10.267.162,20.537.249,25.368.246,50.736.355,22.467.117,44.935.194l4.052.015a13.22,13.22,0,0,0,5.08-.562,8.142,8.142,0,0,0,4.779-5.2c.652-2.148.116-4.154-.528-6.212q-3.467-11.084-6.945-22.163-7.822-24.933-15.674-49.858c-1.014-3.215-1.781-6.721-3.215-9.776-2.032-4.33-6.346-6.314-10.931-6.343q-8.968-.058-17.936-.093-24.9-.112-49.8-.233C78.886,210.1,62.694,210,46.5,209.8q-4.476-.054-8.952-.127C34.461,209.624,34.46,214.424,37.551,214.475Z"/><path class="b" d="M175.437,137.636a26.126,26.126,0,0,0,11.384,2.68,25.619,25.619,0,0,0,11.576-2.27,2.42,2.42,0,0,0,.861-3.283,2.455,2.455,0,0,0-3.284-.861,20.4,20.4,0,0,1-9.153,1.614,20.754,20.754,0,0,1-8.961-2.025c-2.727-1.448-5.155,2.693-2.423,4.145Z"/><path class="b" d="M217.524,112.317c-.662,4.828-3.314,9.192-5.812,13.3a37.39,37.39,0,0,1-9.8,10.923h2.423a93.351,93.351,0,0,1-8.983-5.031c-2.931-1.754-5.957-3.391-8.722-5.405a2.441,2.441,0,0,0-2.908.375c-2.58,2.085-5.135,4.2-7.628,6.388a73.117,73.117,0,0,1-7.066,5.453l3.526,1.435a134.523,134.523,0,0,1-5.879-17.925c-.764-2.991-5.394-1.723-4.629,1.276a134.668,134.668,0,0,0,5.879,17.925c.542,1.316,2.109,2.4,3.526,1.434a79.9,79.9,0,0,0,7.8-6c2.567-2.261,5.2-4.444,7.862-6.593l-2.909.375c2.765,2.014,5.792,3.65,8.722,5.4a93.471,93.471,0,0,0,8.983,5.031,2.422,2.422,0,0,0,2.423,0,43.08,43.08,0,0,0,11.307-12.3c2.782-4.5,5.778-9.469,6.506-14.787a2.482,2.482,0,0,0-1.676-2.952,2.417,2.417,0,0,0-2.952,1.676Z"/><path class="b" d="M121.034,158.85a32.919,32.919,0,0,0,3.617-23.318,20.345,20.345,0,0,0-2.666-7.105,8.611,8.611,0,0,0-6.948-3.907c-2.709-.118-5.4.882-7.862,1.886-4.809,1.956-10.168,5.8-9.032,11.757a6.854,6.854,0,0,0,5.53,5.534,12.243,12.243,0,0,0,4.878-.661l4.927-1.315c2.982-.8,1.717-5.427-1.276-4.629-2.217.592-4.434,1.288-6.678,1.771a2.014,2.014,0,0,1-2.684-1.642c-.725-3.616,4.227-5.674,6.811-6.658,1.731-.659,3.694-1.427,5.584-1.23,1.709.177,2.67,1.384,3.366,2.854a25.079,25.079,0,0,1,1.971,11.413,27.966,27.966,0,0,1-3.682,12.827c-1.536,2.687,2.61,5.107,4.144,2.423Z"/><path class="b" d="M116.71,159.682a82.581,82.581,0,0,1,3.207,11.2,2.415,2.415,0,0,0,2.952,1.676,2.46,2.46,0,0,0,1.676-2.953,82.464,82.464,0,0,0-3.207-11.2,2.4,2.4,0,0,0-4.628,1.276Z"/><path class="b" d="M124.243,167.324c-10.65,4.243-21.927,6.86-32.849,10.295a2.441,2.441,0,0,0-1.676,2.952c2.969,10.415,6.064,20.81,9.892,30.947a2.468,2.468,0,0,0,2.952,1.676,2.418,2.418,0,0,0,1.677-2.952c-3.828-10.137-6.923-20.532-9.893-30.947l-1.676,2.952c10.922-3.434,22.2-6.052,32.849-10.3A2.474,2.474,0,0,0,127.2,169a2.417,2.417,0,0,0-2.953-1.676Z"/><path class="b" d="M98.983,117.95c-1.65-4.514-3.309-9.024-4.941-13.544-.613-1.7-1.3-3.551-.674-5.352.464-1.326,1.494-1.516,2.765-.979,1.384.584,2.135,2.176,2.811,3.41.719,1.314,1.368,2.667,1.983,4.033,1.47,3.261,2.74,6.614,3.93,9.987,1.267,3.59,2.445,7.221,3.4,10.908.775,2.988,5.406,1.721,4.629-1.276a134.778,134.778,0,0,0-8.234-22.956c-1.677-3.6-3.665-7.937-7.91-8.934a6.463,6.463,0,0,0-6.469,1.712A8.9,8.9,0,0,0,88.4,101.7c.333,2.955,1.674,5.786,2.685,8.558q1.635,4.485,3.274,8.968a2.463,2.463,0,0,0,2.952,1.676,2.419,2.419,0,0,0,1.676-2.952Z"/><path class="b" d="M90.268,149.418c2.6,2.282,6.637,6.014,10.364,4.44a6.739,6.739,0,0,0,3.041-9.241,29.834,29.834,0,0,0-5-5.436,23.109,23.109,0,0,0-8.574-5.074c-2.863-1.036-6.758-1.119-8.9,1.366-2.165,2.506-3.946,5.877-3.941,9.272.006,3.65,1.872,6.655,4.12,9.343a91.254,91.254,0,0,0,7.077,7.764,15.213,15.213,0,0,1,3.382,4c.06.119.112.244.165.365-.1-.24-.05-.117.016.053q.184.477.357.958c.243.682.467,1.371.684,2.061.779,2.474,1.513,4.987,2.064,7.522.657,3.017,5.285,1.741,4.629-1.276a60.766,60.766,0,0,0-3.6-11.74c-1.153-2.582-3.408-4.447-5.39-6.38a83.213,83.213,0,0,1-5.725-6.408c-1.489-1.788-3.257-4.023-2.961-6.719a11.57,11.57,0,0,1,.989-3.114,8.573,8.573,0,0,1,1.919-2.716c1.482-.893,4.358.4,5.964,1.127a17.947,17.947,0,0,1,5.14,3.765c.894.871,1.782,1.753,2.62,2.68.184.2.366.409.543.619q.285.354.069.071c.078.105.152.212.223.322a2.1,2.1,0,0,1,.1,1.061,1.957,1.957,0,0,1-.537,1.167c-.4.364-.441.2-.941-.059a23.222,23.222,0,0,1-4.489-3.185c-2.315-2.028-5.723,1.354-3.394,3.394Z"/><path class="b" d="M88.551,134.274a4.934,4.934,0,0,1-.3-.459c-.068-.121-.247-.57-.111-.2a6.321,6.321,0,0,1-.207-.67c-.016-.065-.1-.728-.072-.336a4.729,4.729,0,0,1,0-.762c-.032.36.093-.354.1-.378.023-.074.3-.711.062-.233.082-.166.174-.321.26-.484.273-.515-.241.446.022-.024a1.868,1.868,0,0,1,.166-.155c.137-.118.073-.068-.19.15a1.7,1.7,0,0,1,.393-.217c-.315.127-.385.158-.213.095.077-.028.154-.054.231-.077a6.271,6.271,0,0,1,1.052-.253c-.521.065.233.034.282.036.236.009.472.033.706.06.1.011.706.111.238.028.274.048.547.1.818.165.542.13,1.075.3,1.606.464.454.141.908.284,1.357.441.225.078.448.163.672.246.457.171-.175-.111.3.13.421.215.823.438,1.223.69.341.215-.015-.037.16.122s.342.319.5.491c.108.125.107.115,0-.033.071.094.137.191.2.29a5.879,5.879,0,0,1,.347.613c.073.152.069.14-.01-.034.042.11.079.221.111.334a6.618,6.618,0,0,1,.183.8,2.41,2.41,0,0,0,2.952,1.677,2.467,2.467,0,0,0,1.676-2.953,8.649,8.649,0,0,0-5.134-6.24,21.592,21.592,0,0,0-7.9-2.091,6.6,6.6,0,0,0-5.978,2.973,7.847,7.847,0,0,0,.36,8.216,2.457,2.457,0,0,0,3.284.861,2.428,2.428,0,0,0,.861-3.284Z"/><path class="b" d="M91.76,125.9l0-.263c-.031.164-.028.162.009,0,.013-.054.176-.528.069-.286a4.009,4.009,0,0,1,.26-.461c.154-.255.07-.119.19-.252a7.059,7.059,0,0,1,.73-.7c-.266.221-.04.03.117-.067.127-.078.252-.156.383-.228.111-.061.474-.219.177-.1a5.4,5.4,0,0,1,.607-.191,3.362,3.362,0,0,1,.915-.138,17.4,17.4,0,0,1,2.8.1c.456.048-.256-.043.169.02.206.03.41.065.614.1.407.078.812.166,1.216.258a10.474,10.474,0,0,1,2.281.725,3.18,3.18,0,0,1,1.3,1.084,2.717,2.717,0,0,1,.52,1.867,2.4,2.4,0,1,0,4.8,0,7.851,7.851,0,0,0-3.7-6.811,16.88,16.88,0,0,0-7.2-2.047,11.278,11.278,0,0,0-7.217,1.16A7.621,7.621,0,0,0,86.96,125.9a2.4,2.4,0,1,0,4.8,0Z"/><path class="a" d="M287.294,96.946a3.312,3.312,0,0,1-.273-2.455,72.354,72.354,0,0,1,4.662-13.172s.3-.406.7-.964a86.945,86.945,0,0,0,15.943,7.207c-.051.687-.084,1.2-.084,1.2.372.988-3.126,8.708-4.9,11.847a6.118,6.118,0,0,1-1.172,1.487,5.394,5.394,0,0,1-3.194.879,62.378,62.378,0,0,1-8.94-3.792,6.873,6.873,0,0,1-2.675-2.108C287.34,97.03,287.317,96.988,287.294,96.946Z"/><path class="e" d="M323.834,52.572c.409.5.811,1.032,1.2,1.608a19.1,19.1,0,0,1,1.453,19.826,23.852,23.852,0,0,1-5.769,7.568,27.082,27.082,0,0,1-5.872,4.192,25.785,25.785,0,0,1-5.532,2.1,83.412,83.412,0,0,1-18.048-8.221c-2.924-2.951-4.122-9.745-3.778-13.384a26.88,26.88,0,0,1,1.7-7.787,22.828,22.828,0,0,1,4.879-7.33A19.588,19.588,0,0,1,304.2,45.38,22.559,22.559,0,0,1,316.764,47,20.552,20.552,0,0,1,323.834,52.572Z"/><path class="b" d="M322.137,54.269a18.567,18.567,0,0,1,3.829,8.239,17.464,17.464,0,0,1-1.472,10.111,24.464,24.464,0,0,1-15.82,12.937h1.276a75.49,75.49,0,0,1-14.614-6.266,11.6,11.6,0,0,1-2.738-1.724,9.425,9.425,0,0,1-1.6-3.166,21.046,21.046,0,0,1-1.163-7.093c.177-10.3,8.179-20.512,19.082-19.82a18.475,18.475,0,0,1,13.224,6.782,2.419,2.419,0,0,0,3.394,0,2.451,2.451,0,0,0,0-3.394c-6.2-7.374-17.014-10.409-25.985-6.509a23.564,23.564,0,0,0-8.65,6.721,26.73,26.73,0,0,0-5.831,15.427,22.4,22.4,0,0,0,3.049,12.979c1.409,2.193,3.575,3.3,5.821,4.5,2.308,1.227,4.682,2.32,7.088,3.338,2.124.9,4.269,1.752,6.458,2.479a4.769,4.769,0,0,0,3.078.215,29.452,29.452,0,0,0,4.243-1.576A29.884,29.884,0,0,0,325.1,80.508a24.106,24.106,0,0,0,5.9-15.166,22.917,22.917,0,0,0-5.461-14.467,2.415,2.415,0,0,0-3.394,0A2.457,2.457,0,0,0,322.137,54.269Z"/><path class="b" d="M289.408,91.572a147.008,147.008,0,0,0,14.546,6.075,2.414,2.414,0,0,0,2.952-1.676,2.461,2.461,0,0,0-1.676-2.952c-2.305-.824-4.583-1.719-6.843-2.657q-.224-.091-.447-.186c-.038-.015-.447-.188-.271-.113s-.233-.1-.27-.116l-.444-.19q-.877-.378-1.751-.766-1.7-.756-3.373-1.564a2.4,2.4,0,1,0-2.423,4.145Z"/><path class="b" d="M289.611,80.108a24.163,24.163,0,0,0-1.692,3.819q-1.01,2.569-1.867,5.2a40.263,40.263,0,0,0-1.346,4.73c-.6,3.051.738,5.386,3.329,6.963a44.665,44.665,0,0,0,5.139,2.48,27.63,27.63,0,0,0,5.168,1.991,6.657,6.657,0,0,0,6.146-2.164,23.041,23.041,0,0,0,2.642-4.644c.939-1.958,1.828-3.95,2.608-5.977.5-1.311,1.219-2.955.822-4.38-.829-2.971-5.461-1.709-4.629,1.276a1.835,1.835,0,0,1-.011-.718,3.262,3.262,0,0,0-.127.546c-.152.568-.354,1.124-.56,1.674-.547,1.463-.986,2.446-1.663,3.913-.619,1.342-1.263,2.675-1.963,3.977a5.8,5.8,0,0,1-1.024,1.52c.446-.424-.163.027-.4.119a4.458,4.458,0,0,0-.7.185c.3-.01-.268-.061-.4-.1-.29-.086-.576-.187-.86-.289-.732-.265-1.4-.538-2.06-.825q-2.382-1.037-4.712-2.193c-1.229-.611-2.365-1.049-2.033-2.462s.764-2.824,1.218-4.213q.84-2.573,1.819-5.1.217-.561.445-1.116c.055-.136.111-.271.168-.406-.208.49.045-.1.072-.156a11.44,11.44,0,0,1,.615-1.228c1.618-2.642-2.532-5.056-4.145-2.423Z"/><path class="b" d="M336.723,38.347q-2.7,1.9-5.424,3.765a2.565,2.565,0,0,0-1.1,1.434,2.458,2.458,0,0,0,.242,1.85,2.43,2.43,0,0,0,1.435,1.1,2.388,2.388,0,0,0,1.849-.242q2.722-1.867,5.424-3.765a2.579,2.579,0,0,0,1.1-1.435,2.452,2.452,0,0,0-.242-1.849,2.417,2.417,0,0,0-1.434-1.1,2.368,2.368,0,0,0-1.85.242Z"/><path class="b" d="M324.94,36.625Q326.059,34,327.4,31.479a2.53,2.53,0,0,0,.242-1.849,2.454,2.454,0,0,0-1.1-1.435,2.4,2.4,0,0,0-3.284.861q-1.338,2.52-2.459,5.147a1.794,1.794,0,0,0-.285.892,1.823,1.823,0,0,0,.043.957,2.449,2.449,0,0,0,1.1,1.434,2.42,2.42,0,0,0,1.85.242,2.306,2.306,0,0,0,1.434-1.1Z"/><path class="b" d="M313,33.9c-.234-2.431-.526-4.865-.967-7.268a2.411,2.411,0,0,0-1.1-1.434,2.4,2.4,0,0,0-3.283.861,2.694,2.694,0,0,0-.242,1.849c.176.96.323,1.924.454,2.891l-.086-.638c.167,1.243.307,2.49.427,3.739a2.589,2.589,0,0,0,.7,1.7,2.4,2.4,0,0,0,3.394,0,2.338,2.338,0,0,0,.7-1.7Z"/><path class="b" d="M317.26,73.7a10.367,10.367,0,0,0-2.6-6.479c-1.5-1.857-3.472-3.88-5.918-4.293a7.674,7.674,0,0,0-6.13,1.685,6.56,6.56,0,0,0-2.019,6.848,6.719,6.719,0,0,0,4.888,4.619,6.231,6.231,0,0,0,6.351-2.025,7.315,7.315,0,0,0,1.8-6.883,10.94,10.94,0,0,0-3.793-5.53,10,10,0,0,0-14.831,1.3,2.463,2.463,0,0,0,0,3.394,2.421,2.421,0,0,0,3.394,0c1.83-2.153,4.2-3.345,6.793-2.061a8.519,8.519,0,0,1,2.93,2.427,4.771,4.771,0,0,1,.81,1.5c.036.12.068.241.1.363.013.056.083.555.059.292-.016-.19-.109.929-.017.522a2.536,2.536,0,0,1-.635,1.278,4.435,4.435,0,0,1-.347.339s-.325.274-.139.132c-.145.111-.306.2-.456.3l-.232.129c.155-.053.157-.056.009-.01-.309.138.327.038-.015-.007-.266-.034-.032.017.019.023a4.686,4.686,0,0,1-1.023-.268c.267.1-.373-.193-.518-.3.262.19-.051-.061-.083-.084l-.165-.169q.156.234.019.028a3.466,3.466,0,0,1-.232-.4c-.17-.335.075.3-.019-.077-.039-.155-.085-.308-.116-.466-.076-.393.007.31,0-.106a1.731,1.731,0,0,1,.331-1.224,4.12,4.12,0,0,1,.405-.388c-.08.074-.421.254-.049.055.211-.113.41-.242.625-.348.329-.162-.326.1.041-.01.148-.044.294-.091.443-.133.057-.016.534-.1.265-.066s.352,0,.409-.007a1.387,1.387,0,0,1,.577.1,3.486,3.486,0,0,1,.7.463,17.258,17.258,0,0,1,2.008,1.993,8.046,8.046,0,0,1,1.252,1.93c.176.386-.08-.251.053.142.067.2.13.4.181.606a4.372,4.372,0,0,1,.1.492c-.049-.4-.015.322-.014.366.019,3.088,4.819,3.094,4.8,0Z"/><path class="b" d="M132.339,177.006c1.442,4.673,3.047,9.3,4.69,13.909a2.4,2.4,0,0,0,4.628-1.276c-1.642-4.606-3.248-9.236-4.689-13.909a2.4,2.4,0,0,0-4.629,1.276Z"/></svg>