<?xml version="1.0" encoding="utf-8"?>
<!-- Generator: Adobe Illustrator 28.3.0, SVG Export Plug-In . SVG Version: 6.00 Build 0)  -->
<svg version="1.1" id="Layer_1" xmlns="http://www.w3.org/2000/svg" xmlns:xlink="http://www.w3.org/1999/xlink" x="0px" y="0px"
	 viewBox="0 0 512 512" style="enable-background:new 0 0 512 512;" xml:space="preserve">
<style type="text/css">
	.st0{fill:#525252;}
	.st1{fill:#45413C;}
	.st2{fill:#6DD627;}
	.st3{fill:#724F3D;}
	.st4{fill:#A86C4D;}
	.st5{clip-path:url(#SVGID_00000147217694330197151530000000544019332968976805_);fill:#E3E3E2;}
	.st6{fill:#FF87AF;}
	.st7{fill:#FF6196;}
	.st8{fill:#FFE500;}
	.st9{fill:#EBCB00;}
	.st10{fill:#FF6242;}
	.st11{fill:#FFA694;}
	.st12{fill:#FFAA54;}
	.st13{fill:#ADC4D9;}
	.st14{fill:#C0DCEB;}
	.st15{fill:#FFFFFF;}
</style>
<g>
	<rect x="28.43" y="7.14" class="st0" width="455.15" height="296.72"/>
	<path class="st1" d="M28.43,7.14v5.89H477.7v284.95H34.31l0-290.84H28.43v5.89V7.14h-5.89v296.72c0,1.55,0.63,3.07,1.72,4.16
		c1.1,1.1,2.61,1.72,4.16,1.72h455.15c1.55,0,3.07-0.63,4.16-1.72c1.1-1.1,1.72-2.61,1.72-4.16V7.14c0-1.55-0.63-3.07-1.72-4.16
		c-1.1-1.1-2.61-1.72-4.16-1.72H28.43c-1.55,0-3.07,0.63-4.16,1.72c-1.1,1.1-1.72,2.61-1.72,4.16H28.43z"/>
	<rect x="62.45" y="37.62" class="st2" width="102.75" height="31.43"/>
	<rect x="180.85" y="37.62" class="st2" width="204.92" height="31.43"/>
	<rect x="397.42" y="37.62" class="st2" width="52.02" height="31.43"/>
	<rect x="62.45" y="88.7" class="st2" width="24.83" height="31.43"/>
	<rect x="103.76" y="88.7" class="st2" width="106.4" height="31.43"/>
	<rect x="226.05" y="88.7" class="st2" width="53.2" height="31.43"/>
	<rect x="293.26" y="88.7" class="st2" width="156.07" height="31.43"/>
	<rect x="60.8" y="139.78" class="st2" width="118.41" height="31.43"/>
	<rect x="192.03" y="139.78" class="st2" width="257.41" height="31.43"/>
	<rect x="60.8" y="190.87" class="st2" width="79.57" height="31.43"/>
	<rect x="158.02" y="190.87" class="st2" width="179.61" height="31.43"/>
	<rect x="352.23" y="190.87" class="st2" width="31.19" height="31.43"/>
	<rect x="397.42" y="190.87" class="st2" width="52.02" height="31.43"/>
	<rect x="60.8" y="241.95" class="st2" width="291.43" height="31.43"/>
	<rect x="367.76" y="241.95" class="st2" width="81.68" height="31.43"/>
	<path class="st3" d="M255.95,34.44c70.68,0,127.99,57.26,128.06,127.94v141.24c0,5.9-3.59,11.21-9.06,13.42
		c-76.36,30.72-161.63,30.72-237.99,0c-5.47-2.21-9.06-7.52-9.06-13.42V162.38C127.95,91.7,185.27,34.44,255.95,34.44z"/>
	<path class="st4" d="M255.95,34.44c-70.68,0-127.99,57.26-128.06,127.94v35.31c0-70.72,57.33-128.06,128.06-128.06
		s128.06,57.33,128.06,128.06v-35.31C383.94,91.7,326.63,34.44,255.95,34.44z"/>
	<path class="st1" d="M255.95,34.44v5.89c67.43,0,122.12,54.63,122.17,122.06v-0.01v141.24v0c0,3.5-2.13,6.65-5.38,7.96l0,0
		c-37.47,15.07-77.14,22.61-116.8,22.61c-39.66,0-79.33-7.54-116.8-22.61l0,0c-3.25-1.31-5.38-4.46-5.38-7.96v0V162.38v0.01
		c0.06-67.43,54.75-122.07,122.17-122.06V34.44v-5.89c-73.93,0-133.87,59.89-133.94,133.82v0.01v141.24v0
		c0.01,8.3,5.05,15.77,12.75,18.87l0,0c38.88,15.64,80.04,23.46,121.19,23.46c41.15,0,82.31-7.82,121.19-23.46l0,0
		c7.7-3.11,12.74-10.57,12.75-18.87v0V162.38v-0.01c-0.07-73.93-60.01-133.82-133.94-133.82L255.95,34.44z"/>
	<g>
		<defs>
			<path id="SVGID_1_" d="M255.95,477.94c-97.51,0-176.55,7.9-176.55,17.66c0,9.75,79.04,17.66,176.55,17.66
				c97.51,0,176.55-7.9,176.55-17.66C432.5,485.84,353.45,477.94,255.95,477.94"/>
		</defs>
		<clipPath id="SVGID_00000005236654595197464060000011555399567963045505_">
			<use xlink:href="#SVGID_1_"  style="overflow:visible;"/>
		</clipPath>
		
			<rect x="79.39" y="477.94" style="clip-path:url(#SVGID_00000005236654595197464060000011555399567963045505_);fill:#E3E3E2;" width="353.1" height="35.31"/>
	</g>
	<path class="st6" d="M255.95,327.52L255.95,327.52c77.23,0,139.83,62.6,139.83,139.83v22.36H116.12v-22.36
		C116.12,390.12,178.72,327.52,255.95,327.52z"/>
	<path class="st7" d="M255.95,327.52L255.95,327.52c-77.23,0-139.83,62.6-139.83,139.83v22.36h1.53
		c9.83-68.84,68.76-119.99,138.3-120.06c69.54,0.06,128.47,51.22,138.3,120.06h1.53v-22.36
		C395.78,390.12,333.17,327.52,255.95,327.52z"/>
	<path class="st1" d="M255.95,327.52v5.89c37.01,0,70.45,14.98,94.71,39.23c24.25,24.26,39.23,57.71,39.23,94.71v16.48H122v-16.48
		c0-37.01,14.98-70.45,39.23-94.71c24.26-24.25,57.71-39.23,94.71-39.23V327.52v-5.89c-80.48,0-145.71,65.24-145.71,145.71v22.36
		c0,1.55,0.63,3.07,1.72,4.16c1.1,1.1,2.61,1.72,4.16,1.72h279.66c1.55,0,3.07-0.63,4.16-1.72c1.1-1.1,1.72-2.61,1.72-4.16v-22.36
		c0-80.48-65.24-145.71-145.71-145.71V327.52z"/>
	<rect x="226.05" y="279.85" class="st8" width="59.91" height="93.45"/>
	<path class="st9" d="M255.95,279.85c-16.51,0-29.9,13.38-29.9,29.9v7.06c0,16.51,13.38,29.9,29.9,29.9s29.9-13.38,29.9-29.9v-6.94
		c0.07-16.51-13.27-29.95-29.78-30.01L255.95,279.85z"/>
	<path class="st1" d="M226.05,279.85v5.89h54.02v81.68l-48.14,0v-87.57H226.05v5.89V279.85h-5.89v93.45c0,1.55,0.63,3.07,1.72,4.16
		c1.1,1.1,2.61,1.72,4.16,1.72h59.91c1.55,0,3.07-0.63,4.16-1.72s1.72-2.61,1.72-4.16v-93.45c0-1.55-0.63-3.07-1.72-4.16
		c-1.1-1.1-2.61-1.72-4.16-1.72h-59.91c-1.55,0-3.07,0.63-4.16,1.72c-1.1,1.1-1.72,2.61-1.72,4.16H226.05z"/>
	<path class="st1" d="M180.15,489.71v-28.37c0-3.25-2.63-5.89-5.89-5.89c-3.25,0-5.89,2.63-5.89,5.89v28.37
		c0,3.25,2.63,5.89,5.89,5.89C177.51,495.59,180.15,492.96,180.15,489.71"/>
	<path class="st1" d="M343.52,489.71v-28.37c0-3.25-2.63-5.89-5.89-5.89s-5.89,2.63-5.89,5.89v28.37c0,3.25,2.63,5.89,5.89,5.89
		S343.52,492.96,343.52,489.71"/>
	<path class="st8" d="M362.7,189.22c-30.04-8.5-54.61-30.13-66.85-58.85l-7.3-17.3c-28.38,38.25-70.25,64.26-117.11,72.74l-22.13,4
		c-11.77-0.01-21.31,9.52-21.32,21.29c-0.01,11.77,9.52,21.31,21.29,21.32h0.03h1.29c6.16,58.18,58.31,100.35,116.49,94.19
		c49.68-5.26,88.93-44.51,94.19-94.19h1.41c11.77,0.01,21.31-9.52,21.32-21.29c0.01-11.77-9.52-21.31-21.29-21.32h-0.03
		L362.7,189.22z"/>
	<path class="st1" d="M362.7,189.22l1.6-5.66c-28.32-8.01-51.5-28.42-63.04-55.5l0.01,0.02l-7.3-17.3c-0.82-1.95-2.61-3.3-4.72-3.56
		c-2.11-0.25-4.16,0.63-5.43,2.34c-27.48,37.05-68.04,62.24-113.43,70.45l0,0l-22.13,4l1.05,5.79l0.03-5.89l-0.04,0
		c-15.01,0-27.17,12.16-27.19,27.17l0-0.01l0,0.03c0,15.01,12.16,27.17,27.17,27.19h0h0.03h1.29v-5.89l-5.85,0.62
		c6.09,57.41,54.57,100.05,111.07,100.05c3.93,0,7.9-0.21,11.9-0.63c52.44-5.55,93.87-46.98,99.42-99.42l-5.85-0.62v5.89h1.41
		l0.02,0c15.01,0,27.17-12.16,27.19-27.17v0l0-0.02c0-15.01-12.16-27.17-27.17-27.19h0h-0.03v5.89l5.89,0l0-0.59
		c0-2.63-1.75-4.95-4.28-5.66L362.7,189.22l-5.89,0l0,0.59c0,1.55,0.63,3.07,1.72,4.16c1.1,1.1,2.61,1.72,4.16,1.72h0.03h0
		c8.51,0,15.41,6.91,15.41,15.42l0,0.02v0c0,8.51-6.91,15.41-15.42,15.41l-0.02,0h-1.41c-3.02,0-5.53,2.26-5.85,5.27
		c-4.97,46.92-42.04,83.99-88.96,88.96c-3.58,0.38-7.14,0.56-10.66,0.56c-50.5,0-93.93-38.16-99.36-89.52
		c-0.32-3-2.83-5.27-5.85-5.27h-1.29h-0.03h0c-8.51,0-15.41-6.91-15.41-15.42l0,0v-0.01c0-8.51,6.91-15.41,15.42-15.41v-2.41
		l-0.01,2.41h0.01v-2.41l-0.01,2.41l1.07-0.09l22.13-4l0,0c48.33-8.75,91.52-35.57,120.79-75.02l-4.73-3.51l-5.42,2.29l7.3,17.3
		l0.01,0.02c12.94,30.35,38.92,53.22,70.67,62.21L362.7,189.22l-5.89,0L362.7,189.22z"/>
	<path class="st1" d="M192.03,206.17c0,5.01,4.06,9.06,9.06,9.06c5.01,0,9.06-4.06,9.06-9.06c0-5.01-4.06-9.06-9.06-9.06
		c-4.94-0.07-9,3.89-9.06,8.83V206.17z"/>
	<path class="st1" d="M192.03,206.17h-5.89c0,8.26,6.69,14.94,14.95,14.95c8.26,0,14.94-6.69,14.95-14.95
		c0-8.26-6.69-14.94-14.95-14.95v5.89l0.08-5.88l-0.2,0c-8.11,0-14.71,6.51-14.83,14.63l0,0.08v0.24H192.03h5.89v-0.24h-5.89
		l5.88,0.08c0.02-1.67,1.39-3.02,3.06-3.02l0.04,0l0.08,0c1.75,0,3.17,1.43,3.18,3.18c0,1.75-1.43,3.17-3.18,3.18
		c-1.75,0-3.17-1.43-3.18-3.18H192.03z"/>
	<path class="st1" d="M319.86,206.17c0,5.01-4.06,9.06-9.06,9.06c-5.01,0-9.06-4.06-9.06-9.06c0-5.01,4.06-9.06,9.06-9.06
		c4.94-0.07,9,3.89,9.06,8.83V206.17z"/>
	<path class="st1" d="M319.86,206.17h-5.89c0,1.75-1.43,3.17-3.18,3.18c-1.75,0-3.17-1.43-3.18-3.18c0-1.75,1.43-3.17,3.18-3.18
		l0.08,0l0.04,0c1.66,0,3.04,1.35,3.06,3.02l5.88-0.08h-5.89v0.24H319.86h5.89v-0.24l0-0.08c-0.11-8.13-6.72-14.63-14.83-14.63
		l-0.2,0l0.08,5.88v-5.89c-8.26,0-14.94,6.69-14.95,14.95c0,8.26,6.69,14.94,14.95,14.95c8.26,0,14.94-6.69,14.95-14.95H319.86z"/>
	<path class="st10" d="M222.52,261.37c-1.51,0.03-2.93,0.72-3.88,1.88c-1,1.12-1.43,2.64-1.18,4.12
		c3.73,21.26,23.99,35.46,45.24,31.73c16.2-2.84,28.89-15.53,31.73-31.73c0.25-1.48-0.18-3-1.18-4.12
		c-0.94-1.19-2.37-1.88-3.88-1.88H222.52z"/>
	<path class="st11" d="M255.95,277.85c-10.63-0.42-21.08,2.78-29.66,9.06c14.59,16.25,39.6,17.6,55.85,3l3-3
		C276.68,280.73,266.41,277.54,255.95,277.85z"/>
	<path class="st1" d="M222.52,261.37l-0.13-5.88c-3.22,0.07-6.25,1.54-8.3,4.02l4.54,3.74l-4.4-3.91c-1.77,2-2.73,4.56-2.73,7.19
		l0.16,1.83l0,0.02c3.84,21.83,22.79,37.19,44.24,37.19c2.58,0,5.2-0.22,7.82-0.68c18.64-3.27,33.24-17.87,36.51-36.51l0-0.02
		l0.16-1.83c0-2.63-0.96-5.19-2.73-7.19l-4.4,3.91l4.62-3.64c-2.05-2.61-5.19-4.13-8.5-4.13v5.82l0.04-5.82l-0.04,0v5.82l0.04-5.82
		l-0.8,0.05l0.76,5.84v-5.89h-66.85l-0.13,0L222.52,261.37v5.89h66.85l0.76-0.05l-0.76-5.83l0.06,5.88l0.7-0.05l-0.76-5.83
		l0.06,5.88l-0.06-5.86l-0.04,5.86l0.1,0l-0.06-5.86l-0.04,5.86l0.04,0v-0.94l-0.74,0.58l0.74,0.36v-0.94l-0.74,0.58l0.22,0.27
		l0.7-0.63l-0.94,0l0.24,0.63l0.7-0.63l-0.94,0h0.94l-0.93-0.16l-0.01,0.16h0.94l-0.93-0.16l0-0.02
		c-2.41,13.76-13.19,24.54-26.95,26.95c-1.95,0.34-3.88,0.51-5.78,0.51c-15.79,0-29.83-11.35-32.65-27.46l0,0.02l-0.93,0.16h0.95
		l-0.01-0.16l-0.93,0.16h0.95h-0.94l0.7,0.63l0.24-0.63h-0.94l0.7,0.63l0.14-0.17l-0.54-0.45l0.02,0.71l0.53-0.26l-0.54-0.45
		l0.02,0.71L222.52,261.37v5.89V261.37z"/>
	<ellipse class="st12" cx="186.03" cy="244.77" rx="11.77" ry="7.06"/>
	<ellipse class="st12" cx="325.86" cy="244.77" rx="11.77" ry="7.06"/>
	<path class="st13" d="M356.23,489.71H156.14c-4.41,0.13-8.25-2.96-9.06-7.3l-14.24-116.52c-0.27-4.74,3.35-8.8,8.09-9.07l1.09,0.01
		h228.34c4.73-0.33,8.84,3.23,9.17,7.97l0.01,1.09l-14.24,116.52C364.48,486.75,360.63,489.84,356.23,489.71z"/>
	<path class="st14" d="M141.54,394.84h228.81c1.94,0.01,3.84,0.63,5.41,1.77l3.77-30.72c0.27-4.74-3.35-8.8-8.09-9.07l-1.09,0.01
		H141.54c-4.73-0.33-8.84,3.23-9.17,7.97l-0.01,1.09l3.77,30.72C137.7,395.47,139.6,394.85,141.54,394.84z"/>
	<path class="st1" d="M356.23,489.71v-5.89H156.14l-0.18,0l-0.1,0c-1.46,0-2.74-1.05-3-2.5l-5.78,1.08l5.84-0.71l-14.24-116.52
		l-5.84,0.71l5.88-0.34l0-0.16c0-1.41,1.11-2.62,2.55-2.69l-0.34-5.88l-0.04,5.88l1.09,0.01l0.04,0h228.34l0.41-0.01l0.2-0.01
		c1.39,0,2.6,1.09,2.69,2.52l5.87-0.41l-5.88,0.04l0,0.72l-14.2,116.15l5.84,0.71l-5.78-1.08c-0.27,1.45-1.54,2.5-3,2.5l-0.1,0
		l-0.18,0V489.71l-0.18,5.88l0.45,0.01c7.12,0,13.26-5.07,14.57-12.11l0.06-0.37l14.24-116.52l0.04-0.75l-0.01-1.09l-0.01-0.37
		c-0.55-7.63-6.88-13.46-14.43-13.46l-1.02,0.04l0.41,5.87v-5.89H142.01l0.04,0l-1.09-0.01l-0.37,0.01
		c-7.7,0.45-13.65,6.81-13.65,14.45l0.02,0.84l0.03,0.38l14.24,116.52l0.06,0.37c1.32,7.04,7.45,12.1,14.57,12.11l0.45-0.01
		l-0.18-5.88v5.89h200.09V489.71l-0.18,5.88L356.23,489.71z"/>
	<path class="st15" d="M269.95,423.33c-0.14-3.55,0.85-7.05,2.82-10c-1.08-1.42-2.62-2.42-4.35-2.82
		c-4.18-1.46-8.81,0.15-11.18,3.88c-2.49-3.94-7.42-5.56-11.77-3.88c-5.89,1.18-8.83,9.65-6.71,18.71
		c2.12,9.06,8.71,15.54,14.71,14.36c1.22-0.33,2.35-0.93,3.3-1.77c0.89,0.85,1.98,1.46,3.18,1.77c4.83,0.94,10-3.06,12.95-9.42
		C270.61,431.03,269.56,427.18,269.95,423.33z"/>
	<path class="st15" d="M258.21,408.67c1.17,1.03,4.28-0.58,6.94-3.61c2.66-3.02,3.87-6.31,2.7-7.35l0,0
		c-1.17-1.03-4.28,0.58-6.94,3.61C258.25,404.35,257.04,407.63,258.21,408.67L258.21,408.67z"/>
</g>
</svg>
